<svg xmlns="http://www.w3.org/2000/svg" xml:space="preserve" viewBox="0 0 512 512">
  <circle cx="256" cy="256" r="232.7" style="opacity:.2;fill:#e05d44"/>
  <path d="M256 512C114.8 512 0 397.2 0 256S114.8 0 256 0s256 114.8 256 256-114.8 256-256 256m0-465.4c-115.5 0-209.5 94-209.5 209.5s94 209.5 209.5 209.5 209.5-94 209.5-209.5c0-115.6-94-209.5-209.5-209.5" style="fill:#e05d44"/>
  <g style="fill:#e05d44;stroke:#e05d44;stroke-width:16;stroke-linecap:round;stroke-linejoin:round">
    <line x1="256" y1="160" x2="160" y2="320"/>
    <line x1="160" y1="320" x2="352" y2="320"/>
    <line x1="352" y1="320" x2="256" y2="160"/>
    <circle cx="256" cy="160" r="32" style="stroke:none"/>
    <circle cx="160" cy="320" r="32" style="stroke:none"/>
    <circle cx="352" cy="320" r="32" style="stroke:none"/>
  </g>
</svg>
